<svg id="Слой_1" data-name="Слой 1" xmlns="http://www.w3.org/2000/svg" viewBox="0 0 1920 304.28"><defs><style>.cls-1{fill:#fff;}</style></defs><path class="cls-1" d="M0,10.61H62V49.69h5.59C84.86,19,113.9,0,149.63,0,186.48,0,222.77,20.1,239,53.6h5.58c19.54-34.06,53.6-53,92.68-53C408.13.56,448.88,57,448.88,122.83v171.4H385.8V128.41c0-38.52-23.45-72-64.21-73.14-41.32,0-66.44,34.06-66.44,73.14V294.23H191.5V128.41c0-39.08-20.1-73.14-62.53-73.14-43,0-65.32,32.94-65.32,73.14V294.23H0Z"/><path class="cls-1" d="M493.58,10.61h63.08V294.23H493.58Z"/><path class="cls-1" d="M597.71,10.61H660.8v38h5.58C687,18.42,714.4,1.12,751.81,1.12c72,0,113.89,53.59,113.89,121.15v172H802.06V127.3c0-40.76-22.89-70.91-65.33-70.91S660.8,88.77,660.8,131.2v163H597.71Z"/><path class="cls-1" d="M905.16,10.61h63.08V294.23H905.16Z"/><path class="cls-1" d="M1141.31,10.61h62V49.69h5.58C1226.18,19,1255.21,0,1290.94,0c36.85,0,73.14,20.1,89.33,53.6h5.58c19.54-34.06,53.6-53,92.68-53C1549.44.56,1590.2,57,1590.2,122.83v171.4h-63.09V128.41c0-38.52-23.45-72-64.21-73.14-41.31,0-66.44,34.06-66.44,73.14V294.23h-63.65V128.41c0-39.08-20.09-73.14-62.53-73.14-43,0-65.32,32.94-65.32,73.14V294.23h-63.65Z"/><path class="cls-1" d="M1616.84,149.07C1616.84,59.18,1682.72,0,1769.26,0,1859.14,0,1920,62,1920,149.63c0,10.61,0,17.86-.56,22.33H1682.16c6.7,48.57,42.43,81,91.56,81,34.06,0,67-16.2,83.19-46.9l53,20.1c-24,55.27-81,78.16-138.46,78.16C1680.48,304.28,1616.84,237.84,1616.84,149.07Zm237.84-24c-7.82-45.22-41.32-73.7-87.1-73.7-45.22,0-77.61,29.6-85.42,73.7Z"/></svg>