<?xml version="1.0" standalone="no"?>
<!DOCTYPE svg PUBLIC "-//W3C//DTD SVG 20010904//EN"
 "http://www.w3.org/TR/2001/REC-SVG-20010904/DTD/svg10.dtd">
<svg version="1.0" xmlns="http://www.w3.org/2000/svg"
 width="261.000000pt" height="261.000000pt" viewBox="0 0 261.000000 261.000000"
 preserveAspectRatio="xMidYMid meet">
<metadata>
Created by potrace 1.14, written by Peter Selinger 2001-2017
</metadata>
<g transform="translate(0.000000,261.000000) scale(0.100000,-0.100000)"
fill="#000000" stroke="none">
<path d="M577 1548 c-55 -12 -97 -36 -138 -79 -92 -96 -89 -247 5 -341 107
-107 278 -99 374 18 82 99 66 262 -33 346 -52 45 -145 70 -208 56z"/>
<path d="M1939 1545 c-113 -31 -168 -82 -193 -182 -27 -106 20 -217 118 -278
41 -25 58 -29 120 -29 50 -1 82 5 111 19 181 89 190 356 13 446 -57 29 -117
38 -169 24z"/>
</g>
</svg>
